<svg fill="#004AAD" height="28px" width="28px" version="1.1" id="Layer_1" xmlns="http://www.w3.org/2000/svg" xmlns:xlink="http://www.w3.org/1999/xlink" viewBox="0 0 64 64" enable-background="new 0 0 64 64" xml:space="preserve" stroke="#004AAD">
  <g id="SVGRepo_bgCarrier" stroke-width="0.5"></g>
  <g id="SVGRepo_tracerCarrier" stroke-linecap="round" stroke-linejoin="round"></g>
  <g id="SVGRepo_iconCarrier">
    <path d="M60.0002518,5.0243001h-6.8694V2.0204999c0-0.5752-0.4658012-1.0409999-1.0410004-1.0409999
      c-0.5752029,0-1.0410004,0.4658-1.0410004,1.0409999v3.0038002H39.6338501V2.0204999
      c0-0.5752-0.4659004-1.0409999-1.0410004-1.0409999c-0.5751991,0-1.0410995,0.4658-1.0410995,1.0409999v3.0038002H26.1367493
      V2.0204999c0-0.5752-0.4657993-1.0409999-1.0409985-1.0409999c-0.575201,0-1.0410004,0.4658-1.0410004,1.0409999v3.0038002
      H12.6396503V2.0204999c0-0.5752-0.4658003-1.0409999-1.0410004-1.0409999s-1.0410004,0.4658-1.0410004,1.0409999v3.0038002
      H3.9997499c-2.2090998,0-4,1.7908001-4,3.9999995v49.9962006c0,2.2090988,1.7909,4,4,4h56.0005035
      c2.209198,0,4-1.7909012,4-4V9.0242996C64.0002518,6.8151002,62.2094498,5.0243001,60.0002518,5.0243001z M3.9997499,7.0243001
      h6.5578995v2.9962001c0,0.5752001,0.4658003,1.0409994,1.0410004,1.0409994s1.0410004-0.4657993,1.0410004-1.0409994V7.0243001
      h11.4151001v2.9962001c0,0.5752001,0.4657993,1.0409994,1.0410004,1.0409994c0.5751991,0,1.0409985-0.4657993,1.0409985-1.0409994
      V7.0243001h11.4150009v2.9962001c0,0.5752001,0.4659004,1.0409994,1.0410995,1.0409994
      c0.5750999,0,1.0410004-0.4657993,1.0410004-1.0409994V7.0243001H51.048851v2.9962001
      c0,0.5752001,0.4657974,1.0409994,1.0410004,1.0409994c0.5751991,0,1.0410004-0.4657993,1.0410004-1.0409994V7.0243001h6.8694
      c1.1027985,0,2,0.8971,2,1.9999995v6.9962997l-0.0002022-0.0000992h-60l-0.0003,0.0000992V9.0242996
      C1.99975,7.9214001,2.8970499,7.0243001,3.9997499,7.0243001z M60.0002518,61.0205002H3.9997499
      c-1.1027,0-1.9999999-0.8972015-1.9999999-2V18.0203991l0.0003,0.0001011h60l0.0002022-0.0001011v41.0000992
      C62.0002518,60.1232986,61.1030502,61.0205002,60.0002518,61.0205002z"></path>
  </g>
</svg>
